<?xml version="1.0" encoding="utf-8"?>
<!-- Generator: Adobe Illustrator 28.0.0, SVG Export Plug-In . SVG Version: 6.00 Build 0)  -->
<svg version="1.1" id="Ebene_1" xmlns="http://www.w3.org/2000/svg" xmlns:xlink="http://www.w3.org/1999/xlink" x="0px" y="0px"
	 viewBox="0 0 227.36 215.16" style="enable-background:new 0 0 227.36 215.16;" xml:space="preserve">
<g>
	<path d="M113.75,46.82c16.27,0,31.57,6.34,43.08,17.84c8.49,8.49,14.17,19.05,16.56,30.55l6.98-3.78
		c-7.32-30-34.37-52.26-66.62-52.26c-18.67,0-35.59,7.46-47.95,19.56l7.08,3.83C84.1,52.39,98.5,46.82,113.75,46.82z"/>
	<path d="M174.52,103.3c0.11,1.47,0.16,2.96,0.16,4.45c0,16.27-6.34,31.57-17.84,43.08c-11.51,11.51-26.81,17.84-43.08,17.84
		c-16.27,0-31.57-6.34-43.08-17.84c-11.51-11.51-17.84-26.81-17.84-43.08c0-14.63,5.13-28.47,14.52-39.48l-6.86-3.71
		c-9.57,11.79-15.31,26.82-15.31,43.19c0,37.87,30.7,68.58,68.58,68.58c37.87,0,68.58-30.7,68.58-68.58c0-2.84-0.18-5.64-0.51-8.4
		L174.52,103.3z"/>
	<polygon points="86.73,137.59 140.98,108.24 149.02,103.89 140.98,99.54 86.73,70.19 86.73,78.88 132.95,103.89 86.73,128.9 	"/>
	<polygon points="86.73,151.26 161.53,110.79 153.49,106.44 86.73,142.56 	"/>
</g>
</svg>
